<svg width="314" height="58" viewBox="0 0 314 58" fill="none" xmlns="http://www.w3.org/2000/svg">
<path d="M14.5314 24.5073C6.10341 24.5073 0.587406 21.1753 0.587406 16.0793H7.72741C7.72741 19.1033 10.3874 19.5233 14.5594 19.5233C18.5354 19.5233 20.6354 18.9913 20.6354 17.0873C20.6354 16.1913 19.6274 15.4073 16.5194 15.4073H11.4234V11.3193H16.5194C18.5074 11.3193 20.0754 10.9273 20.0754 9.55527C20.0754 8.54727 19.0394 7.62327 14.5874 7.62327C9.74341 7.62327 7.86741 8.71526 7.86741 10.8713H0.755406C0.755406 5.97127 5.93541 2.66726 14.6154 2.66726C22.7634 2.66726 27.4674 5.18727 27.4674 8.60326C27.4674 11.4593 25.0594 12.9713 22.1194 13.1673C25.0594 13.4193 27.9994 14.8753 27.9994 17.9833C27.9994 22.1273 23.0154 24.5073 14.5314 24.5073ZM41.5505 6.83927C50.8185 6.83927 52.6665 10.5633 52.6665 15.4913V23.9473H46.0585V22.0713L46.2825 20.0833H46.1985C44.7145 22.9113 41.6905 24.4793 37.8545 24.4793C31.3305 24.4793 29.8745 21.4553 29.8745 18.8233C29.8745 15.4353 32.2265 13.3633 38.7505 13.3633C41.8865 13.3633 44.7425 13.9513 46.0305 14.3433V13.9793C46.0305 11.7673 44.5185 10.7033 41.2985 10.7033C38.3305 10.7033 37.1265 11.7673 37.0425 12.8873H30.6025C30.9945 10.1433 33.1225 6.83927 41.5505 6.83927ZM40.0385 19.9993C43.3145 19.9993 45.1345 18.7113 45.7785 17.1433C44.3225 16.6393 42.2505 16.3593 40.6825 16.3593C37.4345 16.3593 36.3985 17.0313 36.3985 18.2073C36.3985 19.2153 37.4625 19.9993 40.0385 19.9993ZM79.3516 7.37127V23.9473H72.7156V11.8513H63.2796V23.9473H56.6156V7.37127H79.3516ZM108.049 7.37127V23.9473H102.085V14.2033L102.225 13.3633H102.141L101.805 13.7833L89.5972 23.9473H83.5492V7.37127H89.5132V17.0593L89.4012 17.9553H89.4572L89.7932 17.5353L101.973 7.37127H108.049ZM124.328 23.9473H117.692V11.8513H110.468V7.37127H131.58V11.8513H124.328V23.9473ZM144.554 6.83927C153.822 6.83927 155.67 10.5633 155.67 15.4913V23.9473H149.062V22.0713L149.286 20.0833H149.202C147.718 22.9113 144.694 24.4793 140.858 24.4793C134.334 24.4793 132.878 21.4553 132.878 18.8233C132.878 15.4353 135.23 13.3633 141.754 13.3633C144.89 13.3633 147.746 13.9513 149.034 14.3433V13.9793C149.034 11.7673 147.522 10.7033 144.302 10.7033C141.334 10.7033 140.13 11.7673 140.046 12.8873H133.606C133.998 10.1433 136.126 6.83927 144.554 6.83927ZM143.042 19.9993C146.318 19.9993 148.138 18.7113 148.782 17.1433C147.326 16.6393 145.254 16.3593 143.686 16.3593C140.438 16.3593 139.402 17.0313 139.402 18.2073C139.402 19.2153 140.466 19.9993 143.042 19.9993ZM175.132 12.9993V7.37127H181.768V23.9473H175.132V17.4793H166.284V23.9473H159.62V7.37127H166.284V12.9993H175.132ZM201.491 12.9993V7.37127H208.127V23.9473H201.491V17.4793H192.643V23.9473H185.979V7.37127H192.643V12.9993H201.491ZM219.422 7.37127H233.394V23.9473H226.758V18.5713H223.874C220.822 18.5713 219.534 19.2153 218.946 20.9793L218.498 22.3233C218.274 22.9393 218.106 23.5273 217.742 23.9473H210.434C211.162 23.1633 211.47 22.5753 211.722 21.8753L212.338 20.2793C212.842 18.9913 213.486 18.0113 215.166 17.8993V17.7593C213.122 16.9753 211.442 15.5473 211.442 12.9153C211.442 9.69527 213.514 7.37127 219.422 7.37127ZM220.01 14.3153H226.758V11.7393H220.01C218.778 11.7393 218.078 12.2153 218.078 13.0273C218.078 13.8673 218.778 14.3153 220.01 14.3153ZM265.71 23.9473H250.702V7.37127H265.794C269.098 7.37127 273.326 7.84726 273.326 11.4593V11.4873C273.326 13.2513 271.842 14.9033 268.566 15.1553V15.2113C272.206 15.5473 274.278 17.0593 274.278 19.4673V19.4953C274.278 22.4073 271.982 23.9473 265.71 23.9473ZM257.338 11.4313V13.8953H264.926C266.298 13.8953 267.054 13.4193 267.054 12.6073C267.054 12.0753 266.578 11.4313 264.842 11.4313H257.338ZM257.338 17.0873V19.6353H265.29C266.942 19.6353 267.81 19.1313 267.81 18.3193C267.81 17.6193 266.97 17.0873 265.234 17.0873H257.338ZM280.667 5.43927C278.119 5.43927 276.831 4.59926 276.831 2.77926C276.831 0.959265 278.119 0.119265 280.667 0.119265C283.215 0.119265 284.503 0.959265 284.503 2.77926C284.503 4.59926 283.215 5.43927 280.667 5.43927ZM283.971 23.9473H277.307V7.37127H283.971V23.9473ZM311.011 7.37127V19.4953H313.503V27.3913H307.959V23.9473H292.895V27.3913H287.351V19.4953H287.771C290.151 19.4953 291.523 16.7793 291.523 12.1033V7.37127H311.011ZM297.627 11.7393V12.1873C297.627 15.6593 296.927 18.0113 295.331 19.4953H304.375V11.7393H297.627ZM39.3425 40.9993V35.3713H45.9785V51.9473H39.3425V45.4793H30.4945V51.9473H23.8305V35.3713H30.4945V40.9993H39.3425ZM60.7458 34.8393C70.0138 34.8393 71.8618 38.5633 71.8618 43.4913V51.9473H65.2538V50.0713L65.4778 48.0833H65.3938C63.9098 50.9113 60.8858 52.4793 57.0498 52.4793C50.5258 52.4793 49.0698 49.4553 49.0698 46.8233C49.0698 43.4353 51.4218 41.3633 57.9458 41.3633C61.0818 41.3633 63.9378 41.9513 65.2258 42.3433V41.9793C65.2258 39.7673 63.7138 38.7033 60.4938 38.7033C57.5258 38.7033 56.3218 39.7673 56.2378 40.8873H49.7978C50.1898 38.1433 52.3178 34.8393 60.7458 34.8393ZM59.2338 47.9993C62.5098 47.9993 64.3298 46.7113 64.9738 45.1433C63.5178 44.6393 61.4458 44.3593 59.8778 44.3593C56.6298 44.3593 55.5938 45.0313 55.5938 46.2073C55.5938 47.2153 56.6578 47.9993 59.2338 47.9993ZM101.095 47.4393V35.3713H107.759V51.9473H75.8109V35.3713H82.4749V47.4393H88.5229V35.3713H95.0469V47.4393H101.095ZM136.459 35.3713V51.9473H130.495V42.2033L130.635 41.3633H130.551L130.215 41.7833L118.007 51.9473H111.959V35.3713H117.923V45.0593L117.811 45.9553H117.867L118.203 45.5353L130.383 35.3713H136.459ZM147.138 51.9473H138.934L145.738 43.1833L139.886 35.3713H148.006L150.666 40.4393L151.058 41.2513H151.114L154.166 35.3713H162.286L156.434 43.1833L163.238 51.9473H155.034L151.422 46.1233L151.114 45.5633H151.058L150.75 46.1513L147.138 51.9473ZM183.212 57.5193L182.288 53.7113C184.752 53.3753 186.516 52.7593 187.44 50.9953L187.58 50.7713H185.004L176.884 35.3713H184.22L188.84 45.8433L189.176 46.9073H189.26L189.54 45.8433L194.244 35.3713L201.58 35.3433L193.236 51.5553C191.248 55.4753 188.196 57.1833 183.212 57.5193ZM226.345 51.9473H219.681V45.5633C218.393 46.0953 215.789 46.9073 212.065 46.9073C206.241 46.9073 203.357 44.0793 203.357 40.2713V35.3713H210.021V39.0393C210.021 40.9713 210.609 42.5393 214.333 42.5393C216.013 42.5393 218.309 42.1193 219.681 41.5873V35.3713H226.345V51.9473ZM246.061 40.9993V35.3713H252.697V51.9473H246.061V45.4793H237.213V51.9473H230.549V35.3713H237.213V40.9993H246.061ZM260.269 33.4393C257.721 33.4393 256.433 32.5993 256.433 30.7793C256.433 28.9593 257.721 28.1193 260.269 28.1193C262.817 28.1193 264.105 28.9593 264.105 30.7793C264.105 32.5993 262.817 33.4393 260.269 33.4393ZM263.573 51.9473H256.909V35.3713H263.573V51.9473ZM282.772 51.9473H267.764V35.3713H282.856C286.16 35.3713 290.388 35.8473 290.388 39.4593V39.4873C290.388 41.2513 288.904 42.9033 285.628 43.1553V43.2113C289.268 43.5473 291.34 45.0593 291.34 47.4673V47.4953C291.34 50.4073 289.044 51.9473 282.772 51.9473ZM274.4 39.4313V41.8953H281.988C283.36 41.8953 284.116 41.4193 284.116 40.6073C284.116 40.0753 283.64 39.4313 281.904 39.4313H274.4ZM274.4 45.0873V47.6353H282.352C284.004 47.6353 284.872 47.1313 284.872 46.3193C284.872 45.6193 284.032 45.0873 282.296 45.0873H274.4Z" fill="#151515"/>
</svg>
