<svg width="381" height="28" viewBox="0 0 381 28" fill="none" xmlns="http://www.w3.org/2000/svg">
<path d="M8.02855 21.5771H0.496547V0.773148H8.02855V8.47315H12.2565L17.1565 0.773148H25.8645L18.5565 10.8811V11.0491L26.9285 21.5771H18.2485L12.2565 13.5971H8.02855V21.5771ZM43.4483 4.46915C49.6083 4.46915 53.1923 7.85715 53.1923 13.3171C53.1923 18.5811 49.5523 22.1371 43.4483 22.1371C40.2843 22.1371 37.5963 21.0451 36.0003 18.4131H35.8883L36.0003 20.4571V26.6171H29.3363V5.00115H36.0003V6.17715L35.8883 8.16515H35.9723C37.5403 5.64515 40.2843 4.46915 43.4483 4.46915ZM41.3483 17.6571C44.8483 17.6571 46.5283 15.7811 46.5283 13.2891C46.5283 10.9091 44.8203 8.92115 41.3483 8.92115C37.8203 8.92115 35.9723 10.9651 35.9723 13.2891C35.9723 15.5851 37.5683 17.6571 41.3483 17.6571ZM59.901 27.1491L58.977 23.3411C61.441 23.0051 63.205 22.3891 64.129 20.6251L64.269 20.4011H61.693L53.573 5.00115H60.909L65.529 15.4731L65.865 16.5371H65.949L66.229 15.4731L70.933 5.00115L78.269 4.97315L69.925 21.1851C67.937 25.1051 64.885 26.8131 59.901 27.1491ZM92.6465 21.5771H86.0105V9.48115H78.7865V5.00115H99.8985V9.48115H92.6465V21.5771ZM113.405 22.1371C105.789 22.1371 101.113 19.0011 101.113 13.2891C101.113 7.63315 105.761 4.46915 113.405 4.46915C121.049 4.46915 125.669 7.63315 125.669 13.2891C125.669 19.0011 121.049 22.1371 113.405 22.1371ZM113.405 17.6571C116.625 17.6571 119.033 16.4531 119.033 13.2891C119.033 10.1811 116.625 8.94915 113.405 8.94915C110.185 8.94915 107.805 10.1811 107.805 13.2891C107.805 16.4531 110.185 17.6571 113.405 17.6571ZM127.597 25.7771V23.4811C129.753 23.6211 130.425 23.3691 130.425 22.1371C127.877 22.1371 126.673 21.4091 126.673 19.4771C126.673 17.4611 127.877 16.7331 130.341 16.7331C132.889 16.7331 134.149 17.6851 134.149 20.3451C134.149 24.9931 131.545 26.4211 127.597 25.7771ZM162.018 21.5771H155.382V9.48115H148.158V5.00115H169.27V9.48115H162.018V21.5771ZM196.188 5.00115V21.5771H190.224V11.8331L190.364 10.9931H190.28L189.944 11.4131L177.736 21.5771H171.688V5.00115H177.652V14.6891L177.54 15.5851H177.596L177.932 15.1651L190.112 5.00115H196.188ZM224.052 4.46915C233.32 4.46915 235.168 8.19315 235.168 13.1211V21.5771H228.56V19.7011L228.784 17.7131H228.7C227.216 20.5411 224.192 22.1091 220.356 22.1091C213.832 22.1091 212.376 19.0851 212.376 16.4531C212.376 13.0651 214.728 10.9931 221.252 10.9931C224.388 10.9931 227.244 11.5811 228.532 11.9731V11.6091C228.532 9.39715 227.02 8.33315 223.8 8.33315C220.832 8.33315 219.628 9.39715 219.544 10.5171H213.104C213.496 7.77315 215.624 4.46915 224.052 4.46915ZM222.54 17.6291C225.816 17.6291 227.636 16.3411 228.28 14.7731C226.824 14.2691 224.752 13.9891 223.184 13.9891C219.936 13.9891 218.9 14.6611 218.9 15.8371C218.9 16.8451 219.964 17.6291 222.54 17.6291ZM274.314 21.5771H266.866L263.114 15.1931H259.166V21.5771H252.53V15.1931H248.582L244.802 21.5771H237.382L243.682 12.8691L237.802 5.00115H245.082L248.638 10.7411H252.53V5.00115H259.166V10.7411H263.058L266.586 5.00115H273.866L268.014 12.8691L274.314 21.5771ZM301.936 21.5771H295.3V9.48115H288.076V5.00115H309.188V9.48115H301.936V21.5771ZM316.03 27.1491L315.106 23.3411C317.57 23.0051 319.334 22.3891 320.258 20.6251L320.398 20.4011H317.822L309.702 5.00115H317.038L321.658 15.4731L321.994 16.5371H322.078L322.358 15.4731L327.062 5.00115L334.398 4.97315L326.054 21.1851C324.066 25.1051 321.014 26.8131 316.03 27.1491ZM348.775 21.5771H342.139V9.48115H334.915V5.00115H356.027V9.48115H348.775V21.5771ZM371.13 15.7251H364.718V15.3611C364.97 9.00515 374.042 9.31315 374.042 6.93315C374.042 6.14915 373.51 5.28115 369.394 5.28115C365.418 5.28115 363.962 6.68115 363.962 8.24915H357.298C357.354 2.90115 362.086 0.297147 369.31 0.297147C376.254 0.297147 380.986 2.50915 380.986 6.51315C380.986 12.3931 371.13 11.7491 371.13 15.3611V15.7251ZM368.022 22.1371C365.502 22.1371 364.298 21.2691 364.298 19.4491C364.298 17.6291 365.502 16.7891 368.022 16.7891C370.514 16.7891 371.746 17.6291 371.746 19.4491C371.746 21.2691 370.514 22.1371 368.022 22.1371Z" fill="#151515"/>
</svg>
