<svg width="82" height="34" viewBox="0 0 82 34" fill="none" xmlns="http://www.w3.org/2000/svg">
<rect width="81.37" height="34" rx="17" fill="#FF0000"/>
<path d="M21.9086 9.875C23.0419 9.875 23.8686 10.1417 24.3886 10.675C24.9086 11.195 25.1686 12.0017 25.1686 13.095V13.595C25.1686 15.035 24.6952 15.975 23.7486 16.415C24.8419 16.8417 25.3886 17.8417 25.3886 19.415V20.555C25.3886 21.635 25.1019 22.4617 24.5286 23.035C23.9686 23.595 23.1419 23.875 22.0486 23.875H18.5886V9.875H21.9086ZM21.7686 17.575H20.7886V21.875H22.0486C22.4352 21.875 22.7219 21.775 22.9086 21.575C23.0952 21.3617 23.1886 21.0017 23.1886 20.495V19.275C23.1886 18.635 23.0752 18.195 22.8486 17.955C22.6352 17.7017 22.2752 17.575 21.7686 17.575ZM21.8486 11.875H20.7886V15.575H21.6486C22.0886 15.575 22.4152 15.4617 22.6286 15.235C22.8552 15.0083 22.9686 14.6283 22.9686 14.095V13.315C22.9686 12.355 22.5952 11.875 21.8486 11.875ZM31.0136 18.655H33.0936V20.515C33.0936 21.6483 32.8136 22.5217 32.2536 23.135C31.6936 23.735 30.8802 24.035 29.8136 24.035C28.7469 24.035 27.9336 23.735 27.3736 23.135C26.8136 22.5217 26.5336 21.6483 26.5336 20.515V13.235C26.5336 12.1017 26.8136 11.235 27.3736 10.635C27.9336 10.0217 28.7469 9.715 29.8136 9.715C30.8802 9.715 31.6936 10.0217 32.2536 10.635C32.8136 11.235 33.0936 12.1017 33.0936 13.235V14.595H31.0136V13.095C31.0136 12.175 30.6336 11.715 29.8736 11.715C29.1136 11.715 28.7336 12.175 28.7336 13.095V20.655C28.7336 21.5617 29.1136 22.015 29.8736 22.015C30.6336 22.015 31.0136 21.5617 31.0136 20.655V18.655ZM37.6684 23.875H34.4284V9.875H36.6284V15.135H37.6684C39.8551 15.135 40.9484 16.2883 40.9484 18.595V20.415C40.9484 22.7217 39.8551 23.875 37.6684 23.875ZM36.6284 21.875H37.6684C38.0284 21.875 38.2951 21.775 38.4684 21.575C38.6551 21.375 38.7484 21.035 38.7484 20.555V18.455C38.7484 17.975 38.6551 17.635 38.4684 17.435C38.2951 17.235 38.0284 17.135 37.6684 17.135H36.6284V21.875ZM44.2804 13.095V20.655C44.2804 21.575 44.6604 22.035 45.4204 22.035C46.1804 22.035 46.5604 21.575 46.5604 20.655V13.095C46.5604 12.175 46.1804 11.715 45.4204 11.715C44.6604 11.715 44.2804 12.175 44.2804 13.095ZM42.0804 20.515V13.235C42.0804 12.115 42.3671 11.2483 42.9404 10.635C43.5138 10.0217 44.3404 9.715 45.4204 9.715C46.5004 9.715 47.3271 10.0217 47.9004 10.635C48.4738 11.2483 48.7604 12.115 48.7604 13.235V20.515C48.7604 21.635 48.4738 22.5017 47.9004 23.115C47.3271 23.7283 46.5004 24.035 45.4204 24.035C44.3404 24.035 43.5138 23.7283 42.9404 23.115C42.3671 22.5017 42.0804 21.635 42.0804 20.515ZM52.4101 23.875H50.2101V9.875H56.0101V11.875H52.4101V23.875ZM59.5148 13.095V20.655C59.5148 21.575 59.8948 22.035 60.6548 22.035C61.4148 22.035 61.7948 21.575 61.7948 20.655V13.095C61.7948 12.175 61.4148 11.715 60.6548 11.715C59.8948 11.715 59.5148 12.175 59.5148 13.095ZM57.3148 20.515V13.235C57.3148 12.115 57.6015 11.2483 58.1748 10.635C58.7482 10.0217 59.5748 9.715 60.6548 9.715C61.7348 9.715 62.5615 10.0217 63.1348 10.635C63.7082 11.2483 63.9948 12.115 63.9948 13.235V20.515C63.9948 21.635 63.7082 22.5017 63.1348 23.115C62.5615 23.7283 61.7348 24.035 60.6548 24.035C59.5748 24.035 58.7482 23.7283 58.1748 23.115C57.6015 22.5017 57.3148 21.635 57.3148 20.515Z" fill="white"/>
</svg>
